<svg xmlns="http://www.w3.org/2000/svg" xmlns:xlink="http://www.w3.org/1999/xlink" width="500" zoomAndPan="magnify" viewBox="0 0 375 374.999991" height="500" preserveAspectRatio="xMidYMid meet" version="1.0"><defs><clipPath id="9032db55a7"><path d="M 82 4.855469 L 201.421875 4.855469 L 201.421875 171 L 82 171 Z M 82 4.855469 " clip-rule="nonzero"/></clipPath></defs><path fill="#8d9f94" d="M 350.59375 263.007812 C 352.113281 261.84375 353.492188 260.507812 354.726562 259.046875 C 355.953125 257.578125 357.097656 256.027344 358.035156 254.34375 C 361.898438 247.644531 363.257812 239.582031 362.800781 231.75 C 362.585938 227.816406 361.957031 223.917969 361.027344 220.128906 C 360.570312 218.226562 360.003906 216.367188 359.417969 214.523438 C 359.101562 213.605469 358.785156 212.695312 358.472656 211.785156 C 358.125 210.910156 357.789062 210.035156 357.449219 209.167969 L 357.199219 208.523438 L 356.894531 207.832031 C 356.699219 207.371094 356.496094 206.910156 356.300781 206.449219 C 356.101562 205.992188 355.902344 205.535156 355.707031 205.082031 L 355.152344 203.878906 C 354.363281 202.167969 353.519531 200.5 352.644531 198.871094 C 352.332031 198.285156 352.011719 197.714844 351.6875 197.136719 C 349.414062 103.046875 249.511719 110.230469 249.511719 110.230469 L 249.53125 110.261719 L 249.511719 110.234375 C 249.570312 110.328125 256.117188 120.273438 265.074219 145.757812 C 282.628906 195.714844 322.214844 198.527344 346.167969 211.433594 C 334.554688 178.796875 279.398438 130.652344 279.398438 130.652344 C 279.398438 130.652344 330.566406 163.199219 349.40625 201.082031 L 349.667969 201.675781 C 349.851562 202.136719 350.039062 202.601562 350.226562 203.0625 C 350.414062 203.527344 350.601562 203.992188 350.789062 204.457031 L 351.074219 205.152344 L 351.3125 205.808594 C 351.628906 206.6875 351.953125 207.566406 352.269531 208.449219 C 352.5625 209.363281 352.859375 210.285156 353.152344 211.207031 C 353.695312 213.0625 354.214844 214.945312 354.632812 216.847656 C 355.472656 220.660156 356.015625 224.574219 356.132812 228.507812 C 356.410156 236.347656 354.851562 244.382812 350.835938 250.984375 C 349.855469 252.644531 348.683594 254.167969 347.421875 255.601562 C 346.144531 257.035156 344.738281 258.34375 343.191406 259.46875 C 341.65625 260.605469 340.011719 261.59375 338.265625 262.410156 C 336.523438 263.207031 334.6875 263.816406 332.789062 264.242188 C 329.015625 265.125 324.996094 265.132812 321.027344 264.46875 C 318.144531 263.941406 315.285156 263.027344 312.519531 261.746094 C 313.933594 262.742188 315.363281 263.6875 316.859375 264.472656 C 320.597656 266.523438 324.5625 267.894531 328.550781 268.523438 C 332.535156 269.101562 336.546875 268.992188 340.308594 268.023438 C 342.191406 267.550781 344.011719 266.898438 345.742188 266.0625 C 347.464844 265.203125 349.089844 264.179688 350.59375 263.007812 " fill-opacity="1" fill-rule="nonzero"/><path fill="#8d9f94" d="M 202.746094 359.652344 C 204.511719 360.386719 206.367188 360.910156 208.25 361.246094 C 210.132812 361.578125 212.042969 361.789062 213.972656 361.769531 C 221.703125 361.753906 229.375 358.90625 235.925781 354.59375 C 239.226562 352.445312 242.292969 349.949219 245.105469 347.242188 C 246.519531 345.902344 247.855469 344.480469 249.160156 343.050781 C 249.789062 342.320312 250.425781 341.589844 251.050781 340.859375 C 251.640625 340.132812 252.226562 339.398438 252.804688 338.675781 L 253.242188 338.132812 L 253.695312 337.519531 C 253.992188 337.117188 254.289062 336.71875 254.589844 336.316406 C 254.886719 335.917969 255.183594 335.515625 255.476562 335.113281 L 256.246094 334.035156 C 257.328125 332.496094 258.347656 330.929688 259.328125 329.367188 C 259.675781 328.800781 260.011719 328.230469 260.347656 327.664062 C 340.71875 278.65625 284.535156 195.734375 284.535156 195.734375 L 284.535156 195.746094 L 284.527344 195.773438 L 284.53125 195.746094 C 284.484375 195.84375 279.140625 206.480469 261.546875 226.976562 C 227.054688 267.15625 244.40625 302.84375 245.203125 330.027344 C 267.667969 303.65625 281.796875 231.832031 281.796875 231.832031 C 281.796875 231.832031 279.191406 292.40625 255.792969 327.660156 L 255.40625 328.183594 C 255.101562 328.578125 254.792969 328.964844 254.484375 329.359375 C 254.179688 329.753906 253.871094 330.15625 253.558594 330.550781 L 253.101562 331.148438 L 252.648438 331.675781 C 252.050781 332.386719 251.449219 333.109375 250.839844 333.828125 C 250.195312 334.535156 249.550781 335.25 248.894531 335.964844 C 247.5625 337.371094 246.195312 338.757812 244.746094 340.070312 C 241.867188 342.703125 238.746094 345.132812 235.398438 347.195312 C 228.75 351.359375 221.011719 354.023438 213.285156 353.851562 C 211.355469 353.832031 209.445312 353.578125 207.574219 353.199219 C 205.695312 352.820312 203.859375 352.25 202.109375 351.480469 C 200.355469 350.714844 198.679688 349.785156 197.105469 348.683594 C 195.535156 347.566406 194.09375 346.28125 192.773438 344.859375 C 190.121094 342.023438 188.105469 338.554688 186.699219 334.78125 C 185.710938 332.027344 185.078125 329.089844 184.800781 326.058594 C 184.644531 327.777344 184.539062 329.492188 184.609375 331.179688 C 184.703125 335.441406 185.5 339.558594 186.949219 343.324219 C 188.441406 347.058594 190.539062 350.480469 193.261719 353.261719 C 194.609375 354.648438 196.085938 355.902344 197.675781 356.976562 C 199.273438 358.042969 200.972656 358.9375 202.746094 359.652344 " fill-opacity="1" fill-rule="nonzero"/><path fill="#8d9f94" d="M 45.109375 279.960938 C 45.355469 281.855469 45.828125 283.722656 46.480469 285.519531 C 47.128906 287.320312 47.90625 289.082031 48.890625 290.738281 C 52.765625 297.425781 59.070312 302.644531 66.085938 306.15625 C 69.59375 307.941406 73.28125 309.347656 77.03125 310.433594 C 78.910156 310.984375 80.804688 311.429688 82.695312 311.84375 C 83.648438 312.03125 84.597656 312.210938 85.542969 312.394531 C 86.46875 312.535156 87.394531 312.675781 88.3125 312.816406 L 89 312.921875 L 89.75 313.011719 C 90.25 313.0625 90.75 313.117188 91.246094 313.179688 C 91.742188 313.234375 92.238281 313.292969 92.730469 313.351562 L 94.050781 313.472656 C 95.921875 313.644531 97.792969 313.742188 99.640625 313.8125 C 100.296875 313.824219 100.960938 313.835938 101.621094 313.84375 C 184.25 358.917969 227.984375 268.824219 227.984375 268.824219 L 227.953125 268.828125 L 227.976562 268.824219 C 227.871094 268.828125 215.984375 269.523438 189.4375 264.535156 C 137.382812 254.761719 115.152344 287.628906 92.003906 301.910156 C 126.070312 308.179688 195.355469 284.488281 195.355469 284.488281 C 195.355469 284.488281 141.582031 312.523438 99.34375 309.894531 L 98.699219 309.820312 C 98.203125 309.753906 97.710938 309.683594 97.214844 309.609375 C 96.722656 309.546875 96.226562 309.476562 95.726562 309.40625 L 94.976562 309.304688 L 94.292969 309.183594 C 93.375 309.019531 92.453125 308.855469 91.53125 308.695312 C 90.59375 308.488281 89.648438 308.285156 88.699219 308.082031 C 86.816406 307.621094 84.929688 307.132812 83.074219 306.53125 C 79.351562 305.359375 75.691406 303.871094 72.226562 302 C 65.296875 298.324219 59.117188 292.960938 55.402344 286.183594 C 54.453125 284.507812 53.722656 282.722656 53.109375 280.910156 C 52.507812 279.09375 52.078125 277.222656 51.875 275.324219 C 51.65625 273.421875 51.628906 271.503906 51.789062 269.589844 C 51.972656 267.679688 52.363281 265.777344 52.941406 263.925781 C 54.0625 260.214844 56.0625 256.734375 58.625 253.628906 C 60.523438 251.390625 62.75 249.378906 65.238281 247.625 C 63.667969 248.34375 62.128906 249.113281 60.707031 250.023438 C 57.0625 252.226562 53.894531 254.976562 51.355469 258.113281 C 48.859375 261.277344 46.949219 264.804688 45.90625 268.550781 C 45.375 270.410156 45.03125 272.316406 44.894531 274.230469 C 44.773438 276.152344 44.851562 278.070312 45.109375 279.960938 " fill-opacity="1" fill-rule="nonzero"/><path fill="#8d9f94" d="M 35.320312 103.625 C 33.800781 104.785156 32.421875 106.125 31.1875 107.585938 C 29.960938 109.050781 28.816406 110.601562 27.878906 112.285156 C 24.015625 118.984375 22.65625 127.050781 23.117188 134.882812 C 23.328125 138.808594 23.957031 142.710938 24.886719 146.5 C 25.34375 148.398438 25.910156 150.265625 26.496094 152.109375 C 26.8125 153.027344 27.128906 153.9375 27.441406 154.84375 C 27.789062 155.71875 28.125 156.589844 28.464844 157.453125 L 28.714844 158.105469 L 29.019531 158.796875 C 29.214844 159.261719 29.417969 159.722656 29.613281 160.179688 C 29.8125 160.632812 30.011719 161.09375 30.207031 161.546875 L 30.761719 162.753906 C 31.550781 164.464844 32.394531 166.125 33.269531 167.761719 C 33.582031 168.347656 33.902344 168.917969 34.226562 169.496094 C 36.5 263.585938 136.402344 256.402344 136.402344 256.402344 L 136.382812 256.371094 L 136.402344 256.386719 C 136.34375 256.304688 129.796875 246.359375 120.839844 220.875 C 103.285156 170.917969 63.699219 168.101562 39.746094 155.199219 C 51.359375 187.835938 106.515625 235.976562 106.515625 235.976562 C 106.515625 235.976562 55.347656 203.433594 36.507812 165.550781 L 36.246094 164.945312 C 36.0625 164.492188 35.875 164.03125 35.6875 163.566406 C 35.5 163.105469 35.3125 162.636719 35.125 162.171875 L 34.839844 161.476562 L 34.601562 160.816406 C 34.285156 159.941406 33.960938 159.066406 33.644531 158.183594 C 33.351562 157.261719 33.054688 156.34375 32.761719 155.421875 C 32.214844 153.566406 31.699219 151.6875 31.28125 149.78125 C 30.441406 145.972656 29.898438 142.058594 29.78125 138.125 C 29.503906 130.285156 31.0625 122.25 35.078125 115.648438 C 36.058594 113.988281 37.230469 112.460938 38.503906 111.023438 C 39.769531 109.59375 41.171875 108.285156 42.722656 107.15625 C 44.25 106.027344 45.902344 105.03125 47.648438 104.222656 C 49.390625 103.425781 51.226562 102.8125 53.121094 102.382812 C 56.898438 101.503906 60.917969 101.496094 64.886719 102.164062 C 67.769531 102.683594 70.628906 103.605469 73.394531 104.886719 C 71.980469 103.882812 70.550781 102.933594 69.054688 102.15625 C 65.316406 100.101562 61.351562 98.734375 57.363281 98.109375 C 53.378906 97.53125 49.367188 97.636719 45.605469 98.605469 C 43.722656 99.078125 41.902344 99.730469 40.171875 100.570312 C 38.449219 101.421875 36.828125 102.453125 35.320312 103.625 " fill-opacity="1" fill-rule="nonzero"/><g clip-path="url(#9032db55a7)"><path fill="#8d9f94" d="M 183.167969 6.976562 C 181.402344 6.242188 179.546875 5.71875 177.664062 5.382812 C 175.78125 5.046875 173.871094 4.832031 171.941406 4.863281 C 164.210938 4.878906 156.539062 7.726562 149.988281 12.039062 C 146.6875 14.1875 143.632812 16.679688 140.808594 19.378906 C 139.394531 20.730469 138.0625 22.148438 136.753906 23.582031 C 136.125 24.3125 135.488281 25.042969 134.863281 25.773438 C 134.273438 26.5 133.6875 27.230469 133.109375 27.953125 L 132.671875 28.5 L 132.222656 29.105469 C 131.921875 29.507812 131.625 29.914062 131.324219 30.316406 C 131.027344 30.714844 130.730469 31.117188 130.4375 31.515625 L 129.667969 32.597656 C 128.585938 34.132812 127.566406 35.695312 126.585938 37.265625 C 126.238281 37.832031 125.902344 38.398438 125.566406 38.964844 C 45.203125 87.976562 101.378906 170.886719 101.378906 170.886719 L 101.386719 170.855469 L 101.382812 170.882812 C 101.429688 170.789062 106.773438 160.152344 124.367188 139.65625 C 158.859375 99.472656 141.507812 63.789062 140.707031 36.601562 C 118.246094 62.96875 104.117188 134.800781 104.117188 134.800781 C 104.117188 134.800781 106.722656 74.226562 130.121094 38.96875 L 130.507812 38.445312 C 130.8125 38.054688 131.121094 37.660156 131.429688 37.269531 C 131.734375 36.875 132.042969 36.476562 132.355469 36.082031 L 132.8125 35.484375 L 133.265625 34.945312 C 133.863281 34.238281 134.464844 33.523438 135.070312 32.804688 C 135.71875 32.09375 136.367188 31.382812 137.019531 30.660156 C 138.351562 29.261719 139.71875 27.875 141.167969 26.5625 C 144.046875 23.925781 147.167969 21.5 150.515625 19.4375 C 157.164062 15.273438 164.902344 12.605469 172.632812 12.78125 C 174.558594 12.796875 176.46875 13.054688 178.339844 13.433594 C 180.21875 13.8125 182.054688 14.382812 183.804688 15.152344 C 185.558594 15.917969 187.234375 16.847656 188.808594 17.949219 C 190.378906 19.058594 191.820312 20.351562 193.140625 21.773438 C 195.792969 24.605469 197.808594 28.074219 199.214844 31.847656 C 200.203125 34.605469 200.835938 37.542969 201.113281 40.574219 C 201.269531 38.851562 201.371094 37.136719 201.304688 35.453125 C 201.210938 31.1875 200.414062 27.074219 198.964844 23.308594 C 197.46875 19.566406 195.375 16.144531 192.652344 13.371094 C 191.304688 11.984375 189.828125 10.730469 188.238281 9.65625 C 186.640625 8.589844 184.933594 7.695312 183.167969 6.976562 " fill-opacity="1" fill-rule="nonzero"/></g><path fill="#8d9f94" d="M 340.804688 86.671875 C 340.554688 84.773438 340.085938 82.910156 339.433594 81.113281 C 338.785156 79.3125 338.007812 77.550781 337.023438 75.894531 C 333.148438 69.203125 326.84375 63.988281 319.828125 60.476562 C 316.320312 58.691406 312.632812 57.285156 308.882812 56.195312 C 307.003906 55.640625 305.109375 55.195312 303.21875 54.785156 C 302.265625 54.601562 301.316406 54.417969 300.371094 54.238281 C 299.441406 54.097656 298.519531 53.957031 297.601562 53.816406 L 296.914062 53.703125 L 296.164062 53.621094 C 295.664062 53.570312 295.164062 53.507812 294.667969 53.453125 C 294.171875 53.394531 293.675781 53.335938 293.183594 53.277344 L 291.863281 53.15625 C 289.992188 52.988281 288.121094 52.882812 286.273438 52.820312 C 285.617188 52.804688 284.953125 52.792969 284.292969 52.789062 C 201.664062 7.703125 157.929688 97.808594 157.929688 97.808594 L 157.929688 97.804688 L 157.964844 97.800781 L 157.9375 97.808594 C 158.042969 97.800781 169.929688 97.105469 196.476562 102.09375 C 248.53125 111.871094 270.761719 79.003906 293.910156 64.714844 C 259.84375 58.453125 190.558594 82.132812 190.558594 82.132812 C 190.558594 82.132812 244.332031 54.101562 286.570312 56.734375 L 287.214844 56.8125 C 287.710938 56.878906 288.203125 56.949219 288.699219 57.015625 C 289.191406 57.085938 289.6875 57.15625 290.1875 57.226562 L 290.9375 57.324219 L 291.621094 57.445312 C 292.539062 57.609375 293.460938 57.777344 294.382812 57.9375 C 295.320312 58.144531 296.269531 58.347656 297.214844 58.550781 C 299.097656 59.007812 300.984375 59.496094 302.839844 60.09375 C 306.5625 61.273438 310.222656 62.761719 313.6875 64.625 C 320.617188 68.308594 326.796875 73.667969 330.511719 80.449219 C 331.460938 82.125 332.191406 83.90625 332.804688 85.71875 C 333.40625 87.539062 333.835938 89.40625 334.039062 91.308594 C 334.257812 93.207031 334.285156 95.128906 334.125 97.039062 C 333.941406 98.953125 333.550781 100.847656 332.972656 102.703125 C 331.851562 106.414062 329.851562 109.894531 327.289062 112.996094 C 325.390625 115.234375 323.164062 117.25 320.675781 119.007812 C 322.246094 118.285156 323.785156 117.511719 325.207031 116.609375 C 328.847656 114.398438 332.027344 111.648438 334.558594 108.511719 C 337.054688 105.347656 338.964844 101.824219 340.007812 98.082031 C 340.539062 96.21875 340.882812 94.3125 341.023438 92.394531 C 341.140625 90.480469 341.0625 88.5625 340.804688 86.671875 " fill-opacity="1" fill-rule="nonzero"/></svg>