<svg width="16" height="32" viewBox="0 0 16 32" fill="none" xmlns="http://www.w3.org/2000/svg">
<mask id="mask0_221_17" style="mask-type:luminance" maskUnits="userSpaceOnUse" x="1" y="20" width="14" height="10">
<path d="M1.28003 20.6475H14.6774V29.312H1.28003V20.6475Z" fill="white"/>
</mask>
<g mask="url(#mask0_221_17)">
<path d="M1.54558 22.2055L7.26508 28.9332C7.65058 29.3832 8.35741 29.3832 8.72158 28.9332L14.4409 22.2055C14.9766 21.5842 14.5267 20.62 13.7127 20.62H9.87841V10.5713C9.87841 10.0357 9.44991 9.60718 8.91441 9.60718H7.09358C6.55808 9.60718 6.12975 10.0357 6.12975 10.5713V20.62H2.29541C1.45991 20.62 1.01008 21.5842 1.54558 22.2055Z" fill="white" fill-opacity="0.5"/>
</g>
<mask id="mask1_221_17" style="mask-type:luminance" maskUnits="userSpaceOnUse" x="1" y="2" width="14" height="10">
<path d="M14.72 11.3525L1.32264 11.3525L1.32264 2.68799L14.72 2.68799L14.72 11.3525Z" fill="white"/>
</mask>
<g mask="url(#mask1_221_17)">
<path d="M14.4544 9.79449L8.73492 3.06682C8.34942 2.61682 7.64259 2.61682 7.27842 3.06682L1.55908 9.79449C1.02342 10.4158 1.47325 11.38 2.28725 11.38H6.12159L6.12159 21.4287C6.12159 21.9643 6.55009 22.3928 7.08559 22.3928H8.90642C9.44192 22.3928 9.87025 21.9643 9.87025 21.4287L9.87025 11.38H13.7046C14.5401 11.38 14.9899 10.4158 14.4544 9.79449Z" fill="white" fill-opacity="0.5"/>
</g>
<rect x="7" y="11" width="2" height="12" fill="#8F9290"/>
</svg>
