<svg width="281" height="324" viewBox="0 0 281 324" fill="none" xmlns="http://www.w3.org/2000/svg">
<g clip-path="url(#clip0_96_67)">
<path d="M418 -32.4H-38V356.4H418V-32.4Z" fill="white"/>
<path d="M418 -32.4H-38V356.4H418V-32.4Z" fill="white"/>
<path d="M418 -32.4H-38V356.4H418V-32.4Z" fill="white"/>
<path d="M347.225 224.299C348.69 223.341 350.02 222.24 351.211 221.035C352.395 219.827 353.499 218.548 354.406 217.164C358.13 211.65 359.445 205.008 359.001 198.561C358.795 195.325 358.186 192.112 357.287 188.993C356.848 187.424 356.306 185.892 355.74 184.376C355.431 183.62 355.126 182.868 354.825 182.118C354.493 181.399 354.168 180.681 353.84 179.968L353.598 179.435L353.305 178.865C353.115 178.483 352.921 178.105 352.731 177.727C352.537 177.349 352.347 176.975 352.157 176.597L351.623 175.608C350.863 174.201 350.048 172.83 349.208 171.487C348.904 171.004 348.595 170.532 348.282 170.059C346.093 92.583 249.728 98.4994 249.728 98.4994L249.747 98.523L249.728 98.5027C249.787 98.577 256.1 106.768 264.738 127.75C281.671 168.885 319.853 171.204 342.958 181.828C331.756 154.956 278.556 115.314 278.556 115.314C278.556 115.314 327.909 142.114 346.081 173.306L346.331 173.799C346.509 174.177 346.691 174.558 346.869 174.94C347.051 175.321 347.237 175.706 347.415 176.087L347.692 176.661L347.922 177.201C348.227 177.923 348.535 178.645 348.84 179.374C349.125 180.124 349.41 180.886 349.695 181.646C350.218 183.171 350.72 184.72 351.12 186.29C351.932 189.429 352.454 192.652 352.565 195.888C352.834 202.345 351.334 208.96 347.459 214.397C346.517 215.767 345.381 217.019 344.165 218.2C342.938 219.382 341.581 220.455 340.088 221.386C338.608 222.321 337.017 223.135 335.338 223.806C333.656 224.461 331.883 224.964 330.058 225.318C326.412 226.041 322.537 226.047 318.709 225.501C315.927 225.069 313.172 224.313 310.504 223.26C311.865 224.08 313.247 224.859 314.688 225.504C318.298 227.195 322.118 228.322 325.965 228.842C329.809 229.314 333.68 229.227 337.306 228.43C339.123 228.039 340.876 227.502 342.546 226.813C344.209 226.108 345.776 225.264 347.225 224.299Z" fill="#8D9F94"/>
<path d="M204.626 303.878C206.328 304.479 208.113 304.911 209.93 305.191C211.747 305.465 213.592 305.64 215.452 305.616C222.906 305.61 230.308 303.261 236.625 299.71C239.808 297.945 242.765 295.886 245.48 293.659C246.842 292.555 248.132 291.384 249.387 290.206C249.997 289.605 250.61 289.001 251.212 288.404C251.782 287.803 252.348 287.199 252.906 286.605L253.33 286.156L253.765 285.653C254.05 285.323 254.339 284.992 254.628 284.661C254.913 284.334 255.202 284 255.483 283.672L256.223 282.785C257.268 281.516 258.254 280.226 259.196 278.94C259.532 278.475 259.861 278.006 260.181 277.54C337.697 237.185 283.512 168.909 283.512 168.909V168.912L283.5 168.936L283.508 168.912C283.464 168.993 278.307 177.755 261.337 194.63C228.067 227.715 244.807 257.097 245.575 279.484C267.243 257.772 280.868 198.626 280.868 198.626C280.868 198.626 278.358 248.505 255.788 277.536L255.416 277.962C255.119 278.289 254.822 278.613 254.525 278.937C254.232 279.261 253.935 279.588 253.634 279.912L253.191 280.405L252.756 280.844C252.178 281.428 251.6 282.018 251.014 282.612C250.392 283.193 249.767 283.784 249.134 284.374C247.851 285.528 246.529 286.673 245.136 287.753C242.353 289.919 239.345 291.921 236.115 293.618C229.702 297.047 222.241 299.244 214.787 299.099C212.923 299.086 211.082 298.873 209.277 298.563C207.468 298.252 205.695 297.783 204.013 297.145C202.318 296.517 200.7 295.751 199.183 294.843C197.667 293.925 196.278 292.866 195.007 291.695C192.446 289.359 190.503 286.507 189.145 283.399C188.191 281.131 187.582 278.711 187.316 276.213C187.162 277.631 187.063 279.045 187.13 280.432C187.217 283.942 187.985 287.334 189.383 290.432C190.827 293.51 192.85 296.328 195.475 298.613C196.773 299.754 198.198 300.79 199.734 301.674C201.273 302.552 202.916 303.288 204.626 303.878Z" fill="#8D9F94"/>
<path d="M52.5785 238.258C52.8199 239.817 53.2712 241.356 53.9005 242.835C54.526 244.316 55.278 245.768 56.2241 247.131C59.9647 252.639 66.0447 256.935 72.8095 259.828C76.1939 261.299 79.7524 262.454 83.3664 263.351C85.1793 263.804 87.0041 264.168 88.8289 264.509C89.7512 264.664 90.6655 264.813 91.576 264.965C92.4705 265.079 93.3612 265.194 94.2478 265.312L94.9089 265.4L95.6332 265.471C96.1162 265.515 96.5991 265.562 97.0741 265.613C97.557 265.656 98.036 265.704 98.511 265.751L99.7816 265.852C101.587 265.994 103.388 266.075 105.173 266.129C105.81 266.142 106.447 266.153 107.085 266.156C186.786 303.274 228.962 229.085 228.962 229.085L228.934 229.092L228.958 229.085C228.855 229.092 217.392 229.662 191.781 225.555C141.578 217.505 120.135 244.569 97.8064 256.335C130.668 261.495 197.493 241.988 197.493 241.988C197.493 241.988 145.627 265.073 104.888 262.906L104.266 262.845C103.787 262.791 103.312 262.73 102.833 262.673C102.358 262.619 101.879 262.562 101.397 262.504L100.676 262.42L100.015 262.322C99.1285 262.187 98.2457 262.052 97.3551 261.917C96.4487 261.748 95.5382 261.579 94.6239 261.411C92.807 261.033 90.9862 260.631 89.193 260.138C85.6028 259.17 82.072 257.945 78.7351 256.409C72.0495 253.378 66.0882 248.964 62.506 243.381C61.5916 241.998 60.883 240.533 60.2933 239.041C59.7114 237.546 59.2958 236.004 59.1018 234.438C58.892 232.875 58.8643 231.292 59.0187 229.716C59.2008 228.143 59.5728 226.581 60.131 225.055C61.2155 221.997 63.1433 219.132 65.6172 216.577C67.446 214.734 69.5914 213.077 71.9941 211.633C70.478 212.227 68.9937 212.858 67.6201 213.604C64.1051 215.42 61.0493 217.684 58.603 220.269C56.1964 222.875 54.3518 225.777 53.3503 228.862C52.8318 230.394 52.5033 231.964 52.3687 233.54C52.2539 235.119 52.3251 236.702 52.5785 238.258Z" fill="#8D9F94"/>
<path d="M43.1377 93.0555C41.6692 94.0174 40.3431 95.1176 39.1477 96.3225C37.9681 97.5274 36.8598 98.8031 35.9573 100.19C32.2325 105.708 30.9183 112.347 31.3656 118.797C31.5636 122.033 32.1731 125.243 33.0756 128.365C33.5111 129.927 34.0573 131.463 34.6233 132.982C34.9281 133.738 35.2369 134.49 35.5377 135.233C35.8702 135.955 36.1948 136.674 36.5194 137.386L36.7648 137.919L37.0577 138.49C37.2477 138.871 37.4417 139.249 37.6317 139.627C37.8256 140.002 38.0156 140.38 38.2056 140.754L38.74 141.747C39.5 143.157 40.3115 144.524 41.1546 145.867C41.4554 146.35 41.7681 146.826 42.0808 147.298C44.2698 224.772 140.631 218.855 140.631 218.855L140.612 218.832L140.631 218.848C140.576 218.778 134.263 210.59 125.625 189.607C108.692 148.47 70.5056 146.151 47.4048 135.526C58.6069 162.402 111.807 202.041 111.807 202.041C111.807 202.041 62.4504 175.243 44.2817 144.048L44.0323 143.556C43.8502 143.178 43.6721 142.8 43.49 142.415C43.3119 142.033 43.1258 141.652 42.9477 141.271L42.6706 140.697L42.4411 140.15C42.1323 139.431 41.8275 138.709 41.5188 137.983C41.2377 137.227 40.9488 136.471 40.6677 135.709C40.1413 134.18 39.6425 132.634 39.2427 131.065C38.4273 127.929 37.9088 124.703 37.7979 121.466C37.5288 115.01 39.029 108.395 42.9042 102.958C43.8463 101.591 44.9823 100.335 46.2015 99.1507C47.4246 97.9762 48.7823 96.8962 50.2706 95.9681C51.7511 95.0332 53.3423 94.2199 55.0246 93.5516C56.7069 92.8935 58.4802 92.3906 60.305 92.0396C63.9506 91.3106 67.8258 91.3039 71.6496 91.8574C74.4363 92.2826 77.1913 93.0454 79.8592 94.095C78.4975 93.2715 77.1121 92.4919 75.6713 91.8506C72.0652 90.1597 68.2454 89.0291 64.3979 88.5161C60.5544 88.0402 56.6831 88.128 53.0573 88.9279C51.2404 89.316 49.4829 89.8526 47.8125 90.5445C46.154 91.2465 44.5904 92.0936 43.1377 93.0555Z" fill="#8D9F94"/>
<mask id="mask0_96_67" style="mask-type:luminance" maskUnits="userSpaceOnUse" x="88" y="11" width="116" height="138">
<path d="M88.1602 11.7281H203.68V148.608H88.1602V11.7281Z" fill="white"/>
</mask>
<g mask="url(#mask0_96_67)">
<path d="M185.737 13.4764C184.035 12.8723 182.246 12.4403 180.433 12.1669C178.616 11.8868 176.771 11.7147 174.911 11.7383C167.453 11.7484 160.055 14.0941 153.738 17.6479C150.551 19.4131 147.602 21.4651 144.883 23.6926C143.521 24.8029 142.235 25.9673 140.972 27.1486C140.367 27.7527 139.753 28.3534 139.147 28.9508C138.577 29.5549 138.015 30.1523 137.453 30.7497L137.03 31.1986L136.602 31.6981C136.309 32.0322 136.024 32.3629 135.735 32.6971C135.45 33.0244 135.161 33.3552 134.88 33.6859L134.14 34.5736C133.091 35.8358 132.109 37.1251 131.163 38.4177C130.831 38.8834 130.502 39.3526 130.182 39.8183C52.6657 80.1732 106.851 148.446 106.851 148.446L106.859 148.419L106.855 148.439C106.899 148.362 112.053 139.604 129.022 122.725C162.296 89.6401 145.556 60.2573 144.784 37.8709C123.12 59.5823 109.495 118.729 109.495 118.729C109.495 118.729 112.005 68.8501 134.572 39.8217L134.948 39.3897C135.244 39.0691 135.541 38.7451 135.838 38.4211C136.131 38.0971 136.428 37.7697 136.729 37.4457L137.172 36.9496L137.604 36.5108C138.185 35.9269 138.763 35.3363 139.349 34.7423C139.971 34.1584 140.6 33.5712 141.225 32.9772C142.512 31.8263 143.83 30.6856 145.227 29.6056C148.006 27.4321 151.014 25.4374 154.248 23.7364C160.657 20.3108 168.122 18.1137 175.58 18.2588C177.436 18.2689 179.277 18.4816 181.082 18.7921C182.895 19.1059 184.668 19.5751 186.35 20.2096C188.045 20.8373 189.66 21.6068 191.18 22.5113C192.692 23.4259 194.085 24.4891 195.356 25.6602C197.917 27.9923 199.86 30.8509 201.218 33.9559C202.172 36.2273 202.778 38.6438 203.047 41.1413C203.197 39.7238 203.3 38.3131 203.233 36.9259C203.146 33.4159 202.374 30.0241 200.977 26.9258C199.532 23.8444 197.513 21.0297 194.889 18.7448C193.59 17.6007 192.161 16.5679 190.629 15.6803C189.086 14.8062 187.447 14.0704 185.737 13.4764Z" fill="#8D9F94"/>
</g>
<path d="M337.78 79.0965C337.543 77.5372 337.092 76.0016 336.462 74.5234C335.833 73.0384 335.085 71.5871 334.135 70.227C330.398 64.7156 324.318 60.4193 317.553 57.5303C314.169 56.0587 310.61 54.9045 306.992 54.0068C305.183 53.5478 303.359 53.1833 301.53 52.8424C300.612 52.6939 299.697 52.542 298.787 52.3935C297.892 52.2787 297.002 52.1606 296.115 52.0459L295.45 51.9514L294.726 51.8872C294.243 51.84 293.764 51.7894 293.285 51.7455C292.802 51.6983 292.327 51.651 291.848 51.6038L290.577 51.5059C288.772 51.3641 286.971 51.2797 285.19 51.2257C284.553 51.2123 283.915 51.2055 283.278 51.2021C203.577 14.0771 161.397 88.2697 161.397 88.2697V88.2664L161.433 88.263L161.405 88.2697C161.504 88.263 172.967 87.6926 198.578 91.7966C248.785 99.8494 270.227 72.7852 292.556 61.02C259.694 55.863 192.87 75.3671 192.87 75.3671C192.87 75.3671 244.736 52.2821 285.471 54.4489L286.096 54.513C286.571 54.567 287.05 54.6244 287.525 54.6818C288.004 54.7358 288.479 54.7965 288.962 54.8539L289.683 54.9349L290.344 55.0361C291.23 55.1677 292.117 55.3061 293.008 55.4377C293.914 55.6099 294.828 55.7753 295.739 55.9474C297.556 56.3186 299.377 56.7236 301.166 57.2164C304.76 58.185 308.287 59.4101 311.628 60.9491C318.309 63.9765 324.274 68.391 327.857 73.9732C328.771 75.357 329.476 76.8251 330.066 78.3169C330.651 79.812 331.063 81.351 331.257 82.9204C331.467 84.4796 331.498 86.0659 331.34 87.6352C331.162 89.2147 330.786 90.7706 330.232 92.2995C329.147 95.3572 327.219 98.2226 324.746 100.778C322.917 102.62 320.767 104.277 318.369 105.725C319.885 105.131 321.369 104.493 322.739 103.751C326.254 101.932 329.317 99.6671 331.76 97.0819C334.166 94.4764 336.011 91.5772 337.012 88.4959C337.527 86.9602 337.859 85.3909 337.994 83.8114C338.109 82.2386 338.034 80.6557 337.78 79.0965Z" fill="#8D9F94"/>
</g>
<defs>
<clipPath id="clip0_96_67">
<rect width="380" height="324" fill="white"/>
</clipPath>
</defs>
</svg>
