<svg width="313" height="30" viewBox="0 0 313 30" fill="none" xmlns="http://www.w3.org/2000/svg">
<path d="M16.2423 29.48C14.029 29.48 11.989 29.1333 10.1223 28.44C8.28234 27.72 6.66901 26.7067 5.28234 25.4C3.92234 24.0933 2.85568 22.56 2.08234 20.8C1.33568 19.04 0.962344 17.1067 0.962344 15C0.962344 12.8933 1.33568 10.96 2.08234 9.2C2.85568 7.44 3.93568 5.90667 5.32234 4.6C6.70901 3.29333 8.33568 2.29333 10.2023 1.6C12.069 0.879999 14.1223 0.52 16.3623 0.52C18.8423 0.52 21.069 0.933332 23.0423 1.76C25.0423 2.58666 26.7223 3.78667 28.0823 5.36L23.9223 9.2C22.909 8.13333 21.8023 7.34667 20.6023 6.84C19.4023 6.30667 18.0957 6.04 16.6823 6.04C15.3223 6.04 14.0823 6.25333 12.9623 6.68C11.8423 7.10666 10.869 7.72 10.0423 8.52C9.24234 9.32 8.61568 10.2667 8.16234 11.36C7.73568 12.4533 7.52234 13.6667 7.52234 15C7.52234 16.3067 7.73568 17.5067 8.16234 18.6C8.61568 19.6933 9.24234 20.6533 10.0423 21.48C10.869 22.28 11.829 22.8933 12.9223 23.32C14.0423 23.7467 15.269 23.96 16.6023 23.96C17.8823 23.96 19.1223 23.76 20.3223 23.36C21.549 22.9333 22.7357 22.2267 23.8823 21.24L27.5623 25.92C26.0423 27.0667 24.269 27.9467 22.2423 28.56C20.2423 29.1733 18.2423 29.48 16.2423 29.48ZM21.6423 25.08V14.56H27.5623V25.92L21.6423 25.08ZM33.5817 29V0.999998H45.7017C48.2084 0.999998 50.3684 1.41333 52.1817 2.24C53.9951 3.04 55.3951 4.2 56.3817 5.72C57.3684 7.24 57.8617 9.05333 57.8617 11.16C57.8617 13.24 57.3684 15.04 56.3817 16.56C55.3951 18.0533 53.9951 19.2 52.1817 20C50.3684 20.8 48.2084 21.2 45.7017 21.2H37.1817L40.0617 18.36V29H33.5817ZM51.3817 29L44.3817 18.84H51.3017L58.3817 29H51.3817ZM40.0617 19.08L37.1817 16.04H45.3417C47.3417 16.04 48.8351 15.6133 49.8217 14.76C50.8084 13.88 51.3017 12.68 51.3017 11.16C51.3017 9.61333 50.8084 8.41333 49.8217 7.56C48.8351 6.70667 47.3417 6.28 45.3417 6.28H37.1817L40.0617 3.2V19.08ZM68.9558 12.28H82.4358V17.32H68.9558V12.28ZM69.4358 23.8H84.6758V29H62.9958V0.999998H84.1558V6.2H69.4358V23.8ZM95.7917 12.28H109.272V17.32H95.7917V12.28ZM96.2717 23.8H111.512V29H89.8317V0.999998H110.992V6.2H96.2717V23.8ZM116.668 29V0.999998H122.028L138.548 21.16H135.948V0.999998H142.348V29H137.028L120.468 8.84H123.068V29H116.668ZM155.932 29V17.56L157.412 21.48L145.092 0.999998H151.972L161.412 16.72H157.452L166.932 0.999998H173.292L160.972 21.48L162.412 17.56V29H155.932ZM175.769 29V0.999998H187.889C190.396 0.999998 192.556 1.41333 194.369 2.24C196.183 3.04 197.583 4.2 198.569 5.72C199.556 7.24 200.049 9.05333 200.049 11.16C200.049 13.24 199.556 15.04 198.569 16.56C197.583 18.08 196.183 19.2533 194.369 20.08C192.556 20.88 190.396 21.28 187.889 21.28H179.369L182.249 18.36V29H175.769ZM182.249 19.08L179.369 16H187.529C189.529 16 191.023 15.5733 192.009 14.72C192.996 13.8667 193.489 12.68 193.489 11.16C193.489 9.61333 192.996 8.41333 192.009 7.56C191.023 6.70667 189.529 6.28 187.529 6.28H179.369L182.249 3.2V19.08ZM210.635 12.28H224.115V17.32H210.635V12.28ZM211.115 23.8H226.355V29H204.675V0.999998H225.835V6.2H211.115V23.8ZM227.831 29L240.311 0.999998H246.711L259.231 29H252.431L242.191 4.28H244.751L234.471 29H227.831ZM234.071 23L235.791 18.08H250.191L251.951 23H234.071ZM275.146 29.48C272.986 29.48 270.972 29.1333 269.106 28.44C267.266 27.72 265.666 26.7067 264.306 25.4C262.946 24.0933 261.879 22.56 261.106 20.8C260.359 19.04 259.986 17.1067 259.986 15C259.986 12.8933 260.359 10.96 261.106 9.2C261.879 7.44 262.946 5.90667 264.306 4.6C265.692 3.29333 267.306 2.29333 269.146 1.6C270.986 0.879999 272.999 0.52 275.186 0.52C277.612 0.52 279.799 0.946666 281.746 1.8C283.719 2.62667 285.372 3.85333 286.706 5.48L282.546 9.32C281.586 8.22667 280.519 7.41333 279.346 6.88C278.172 6.32 276.892 6.04 275.506 6.04C274.199 6.04 272.999 6.25333 271.906 6.68C270.812 7.10666 269.866 7.72 269.066 8.52C268.266 9.32 267.639 10.2667 267.186 11.36C266.759 12.4533 266.546 13.6667 266.546 15C266.546 16.3333 266.759 17.5467 267.186 18.64C267.639 19.7333 268.266 20.68 269.066 21.48C269.866 22.28 270.812 22.8933 271.906 23.32C272.999 23.7467 274.199 23.96 275.506 23.96C276.892 23.96 278.172 23.6933 279.346 23.16C280.519 22.6 281.586 21.76 282.546 20.64L286.706 24.48C285.372 26.1067 283.719 27.3467 281.746 28.2C279.799 29.0533 277.599 29.48 275.146 29.48ZM297.042 12.28H310.522V17.32H297.042V12.28ZM297.522 23.8H312.762V29H291.082V0.999998H312.242V6.2H297.522V23.8Z" fill="#819589"/>
</svg>
